<svg xmlns="http://www.w3.org/2000/svg" viewBox="0 0 24 24">
  <path d="M20.344,7.491c-0.329-0.496-1.021-0.593-1.479-0.212c-0.387,0.322-0.476,0.883-0.197,1.303C19.509,9.847,20,11.366,20,13 c0,4.943-4.483,8.839-9.605,7.844c-3.119-0.606-5.633-3.12-6.239-6.239C3.161,9.483,7.057,5,12,5v0.413 c0,0.475,0.536,0.753,0.924,0.478l1.995-1.413c0.33-0.234,0.33-0.723,0-0.956l-1.995-1.413C12.536,1.834,12,2.111,12,2.587V3 C6.477,3,2,7.477,2,13c0,5.903,5.114,10.611,11.153,9.935c4.509-0.505,8.192-4.127,8.763-8.629 C22.238,11.776,21.611,9.404,20.344,7.491z" opacity=".35" fill="#FF6767" />
  <path d="M8.726,16.113v-5.011L8.25,11.461c-0.383,0.289-0.932,0.176-1.17-0.24l0,0C6.878,10.87,6.973,10.424,7.3,10.184L8.603,9.23C8.807,9.081,9.054,9,9.308,9h0C9.966,9,10.5,9.534,10.5,10.192v5.92c0,0.49-0.397,0.887-0.887,0.887h0C9.123,17,8.726,16.603,8.726,16.113z" fill="#FF6767" />
  <path d="M17.02,13c0,0.434,0.077,4-2.526,4s-2.515-3.566-2.515-4s-0.051-4,2.515-4S17.02,12.566,17.02,13z M15.287,13c0-0.253,0.06-2.472-0.792-2.472S13.704,12.747,13.704,13c0,0.26-0.025,2.472,0.791,2.472S15.287,13.26,15.287,13z" fill="#FF6767" />
</svg>